<?xml version="1.0" encoding="UTF-8"?>
<!DOCTYPE svg PUBLIC "-//W3C//DTD SVG 1.1//EN" "http://www.w3.org/Graphics/SVG/1.1/DTD/svg11.dtd">
<!-- Creator: CorelDRAW 2017 -->
<svg xmlns="http://www.w3.org/2000/svg" xml:space="preserve" width="13in" height="13in" version="1.1" style="shape-rendering:geometricPrecision; text-rendering:geometricPrecision; image-rendering:optimizeQuality; fill-rule:evenodd; clip-rule:evenodd"
viewBox="0 0 13000 13000"
 xmlns:xlink="http://www.w3.org/1999/xlink">
 <defs>
  <style type="text/css">
   <![CDATA[
    .fil0 {fill:#306998}
    .fil2 {fill:#646464}
    .fil1 {fill:#FFD43B}
   ]]>
  </style>
 </defs>
 <g id="Layer_x0020_1">
  <metadata id="CorelCorpID_0Corel-Layer"/>
  <g id="_683030565664">
   <g>
    <path class="fil0" d="M4781.54 3278.09l-10.67 -10.67c-145.95,-145.95 -323.56,-219.51 -529.95,-219.51l-1488.27 0c-412.79,0 -749.47,-336.68 -749.47,-749.46l0 -1498.97c0,-412.79 336.68,-749.46 749.47,-749.46l1498.94 0c412.79,0 749.46,336.68 749.46,749.46l0 1488.31c0,206.39 73.56,384 219.51,529.95l10.66 10.66c145.95,145.95 323.56,219.51 529.95,219.51l1488.29 0c412.79,0 749.46,336.68 749.46,749.46l0 1498.96c0,412.79 -336.68,749.46 -749.46,749.46l-1488.27 0c-206.39,0 -384,73.56 -529.95,219.51l-10.68 10.68c-145.95,145.95 -219.51,323.56 -219.51,529.95l0 1488.29c0,412.79 -336.68,749.46 -749.46,749.46l-1498.94 0c-412.79,0 -749.47,-336.68 -749.47,-749.46l0 -1498.96c0,-412.79 336.68,-749.46 749.47,-749.46l1488.27 0c206.39,0 384,-73.56 529.95,-219.51l10.67 -10.68c145.95,-145.95 219.51,-323.56 219.51,-529.95l0 -1477.61c0,-206.39 -73.56,-384 -219.51,-529.95z"/>
    <path class="fil1" d="M8748.39 50l1498.95 0c412.79,0 749.46,336.68 749.46,749.46l0 1498.97c0,412.79 -336.68,749.46 -749.46,749.46l-1498.95 0c-412.79,0 -749.46,-336.68 -749.46,-749.46l0 -1498.97c0,-412.79 336.68,-749.46 749.46,-749.46z"/>
    <path class="fil1" d="M8748.39 6045.8l1498.95 0c412.79,0 749.46,336.68 749.46,749.46l0 1498.96c0,412.79 -336.68,749.46 -749.46,749.46l-1498.95 0c-412.79,0 -749.46,-336.68 -749.46,-749.46l0 -1498.96c0,-412.79 336.68,-749.46 749.46,-749.46z"/>
   </g>
   <g>
    <path class="fil2" d="M2952.81 9829.24c548.54,-9.23 797.47,507.05 802.09,1092.5 0,516.28 -258.15,1000.3 -811.32,1018.73 -225.87,0 -419.48,-69.15 -608.48,-184.38l0 1193.91 -331.9 -119.83 4.6 -2650.59c-4.6,0 258.16,-345.73 940.39,-354.96l4.63 4.63zm-82.98 1871.54c442.54,-27.66 497.85,-460.96 497.85,-802.09 0,-331.9 -55.32,-829.75 -474.82,-848.18 -285.78,-18.46 -516.28,115.23 -562.37,161.32l0 1313.77c110.63,69.15 331.9,189.01 539.34,175.18zm1779.37 -460.96l0 -1415.2 -341.13 115.26 0 1401.34c0,373.39 345.73,590.06 649.97,590.06 396.45,0 622.31,-110.63 723.72,-156.75 4.63,50.71 0,36.89 0,87.6 0,147.49 -4.6,401.04 -73.74,530.11 -138.3,262.76 -507.08,299.64 -765.21,336.5l55.31 212.07c341.1,-9.23 820.53,-138.29 991.08,-460.99 96.8,-184.38 110.63,-539.33 110.63,-774.43l0 -1830.05 -336.5 0 0 1645.67c-110.63,73.75 -313.47,175.18 -493.25,179.78 -299.61,4.6 -520.88,-156.72 -520.88,-465.59l0 4.63zm2613.72 696.06c10.43,0 20.8,-0.13 31.11,-0.33 12.5,-0.24 24.85,-0.6 37.19,-1.17l2.1 -0.11 11.35 -0.54 1.63 -0.11 11.76 -0.68 1.15 -0.08c8.52,-0.52 16.98,-1.12 25.43,-1.8l0.19 -0.03 12.71 -1.09 0.28 0 12.39 -1.17 0.73 -0.05 11.87 -1.25 1.17 -0.11 11.35 -1.28 24.85 -3.07 2.53 -0.33c23.57,-3.19 46.8,-6.97 69.69,-11.22l0.79 -0.14 5.09 -0.95 6.86 -1.33c19.85,-3.89 39.42,-8.22 58.75,-12.87l7.46 -1.82 4.11 -1.04 1.5 -0.38 21.4 -5.61 8.57 -2.34 2.78 -0.79c11.33,-3.19 22.54,-6.48 33.68,-9.91l10.02 -3.13 1.09 -0.35 10.35 -3.32 0.68 -0.24 10.67 -3.54 0.3 -0.11 21.72 -7.57 0.49 -0.17 10.26 -3.73 0.9 -0.33 9.8 -3.67 1.28 -0.46 9.33 -3.59 19.41 -7.73 1.66 -0.65 2.4 -0.98 8.03 -3.32 2.78 -1.17 7.57 -3.24 20.53 -9.01 3.84 -1.71 6.31 -2.89 4.19 -1.93 5.91 -2.78 4.52 -2.12 5.5 -2.64 4.87 -2.34 5.09 -2.5 5.17 -2.56 4.71 -2.37 5.53 -2.78 4.3 -2.2 0.54 -0.3 9.2 -4.76 6.15 -3.24 3.54 -1.88 6.45 -3.48 3.16 -1.74 6.75 -3.7 2.81 -1.55 7.05 -3.98 2.43 -1.39 7.35 -4.19 2.07 -1.2 7.62 -4.46 1.72 -1.03 7.92 -4.71 1.36 -0.81 8.19 -5.01 1.01 -0.6 8.46 -5.28 0.65 -0.41 8.74 -5.52 0.33 -0.22 9.01 -5.8 -87.6 -175.18c-184.38,87.57 -341.11,165.95 -557.77,161.35 -5.53,-0.08 -11.05,-0.24 -16.52,-0.49l-3.07 -0.14c-4.9,-0.24 -9.8,-0.6 -14.65,-0.98l-1.06 -0.08 -1.04 -0.08 -14.62 -1.5 -1.61 -0.16 -0.46 -0.08 -2.07 -0.24 -12.8 -1.8 -3.62 -0.57 -2.01 -0.33 -8.11 -1.41 -1.99 -0.38 -4.03 -0.76 -1.99 -0.41 -2.01 -0.41 -3.98 -0.85 -1.99 -0.43 -1.96 -0.44 -0.05 0 -3.89 -0.9 -1.96 -0.46 -1.99 -0.49 -1.93 -0.49 -1.96 -0.49 -1.96 -0.49 -1.93 -0.52 -1.96 -0.49 -3.87 -1.06 -1.93 -0.54 -5.77 -1.66 -1.91 -0.57c-295.97,-88.91 -445.53,-462.35 -445.53,-782.38 0,-382.61 179.78,-838.98 543.96,-857.41 57.41,-3.51 118.96,1.82 180.79,13.07l4.76 0.87 0.27 0.06 5.04 0.95 2.64 0.49 2.4 0.46 5.04 1.01 0.49 0.11 4.55 0.93 3.41 0.68 1.6 0.35 5.04 1.06 1.28 0.27 3.76 0.84 4.17 0.93 0.84 0.19 5.04 1.14 2.04 0.46 2.97 0.7 4.93 1.15 0.08 0.03 5.01 1.22 2.8 0.68 2.21 0.54 5.01 1.25 0.65 0.17 4.33 1.11 3.54 0.93 1.44 0.35 4.98 1.33 1.42 0.38 3.56 0.95 4.28 1.17 0.68 0.19 4.95 1.36 2.18 0.63 2.78 0.79 4.93 1.41 0.08 0 4.85 1.42 2.91 0.87 1.98 0.6 4.93 1.47 0.81 0.24 4.06 1.22 3.65 1.12 1.25 0.41 4.85 1.53 1.58 0.49 3.3 1.04 4.33 1.39 0.52 0.17 4.82 1.58 2.28 0.76 2.53 0.81 4.79 1.61 0.25 0.08 4.54 1.55 2.97 1.01 1.8 0.63 4.74 1.63 0.98 0.33 3.76 1.33 3.67 1.31 1.04 0.38 4.71 1.69 1.66 0.6 3.02 1.09 4.36 1.61 0.3 0.11 4.65 1.74 2.34 0.87 2.29 0.87 4.6 1.74 0.38 0.13 4.19 1.63 3.02 1.17 1.56 0.6 4.52 1.8 1.09 0.41 3.43 1.39 3.68 1.44 0.84 0.35 4.46 1.82 1.74 0.71 2.69 1.11 4.28 1.77 0.16 0.05 4.38 1.85 2.4 1.01 1.99 0.84 4.35 1.85 0.52 0.22 3.81 1.66 2.96 1.31 1.31 0.57 4.28 1.88 1.17 0.52 3.07 1.39 3.57 1.61 0.65 0.27 4.19 1.91 1.77 0.81 2.37 1.11 4.14 1.91 96.8 -179.78 -14.94 -9.12 -0.06 -0.03 -11.27 -6.64 -3.78 -2.2 -0.08 -0.06 -3.73 -2.12 -11.44 -6.43 -0.13 -0.06 -11.41 -6.2 -3.87 -2.04 -0.17 -0.11 -3.7 -1.93 -3.89 -2.02 -6.81 -3.51 -0.98 -0.49 -0.19 -0.11 -3.7 -1.85 -3.92 -1.96 -3.92 -1.93 -3.92 -1.93 -0.25 -0.14 -3.7 -1.77 -3.95 -1.88 -3.94 -1.88 -3.95 -1.85 -0.3 -0.13 -3.67 -1.69 -3.98 -1.82 -3.97 -1.8 -4 -1.8 -0.33 -0.16 -3.67 -1.61 -4 -1.74 -4 -1.71 -4 -1.72 -0.41 -0.19 -3.62 -1.53 -8.09 -3.35 -4.03 -1.63 -0.44 -0.19 -3.62 -1.44 -4.06 -1.61 -8.14 -3.19 -0.49 -0.19 -3.56 -1.36 -8.17 -3.07 -4.11 -1.53 -0.52 -0.19 -0.08 -0.03 -11.7 -4.19 -4.11 -1.44 -0.6 -0.22 -0.63 -0.22 -7.02 -2.39 -4.14 -1.39 -4.14 -1.39 -0.63 -0.22 -3.51 -1.11 -0.46 -0.17 -7.81 -2.5 -4.16 -1.31 -0.68 -0.22 -3.48 -1.06c-271.47,-83.33 -571.57,-56.3 -785.95,91.31 -281.19,193.61 -437.91,566.99 -437.91,945.01 0,507.05 304.24,1023.36 820.53,1027.96z"/>
    <path class="fil2" d="M7653.76 9867.85c-53.22,63.19 -101.62,128.54 -145.51,195.73 107.37,19.38 215.5,56.62 303.24,97.56l96.8 -179.78c-79.3,-49.41 -165.49,-87.39 -254.53,-113.52zm-424.73 1822.45c17.5,82.73 39.04,164.64 65.01,245.25 281.43,-5.63 519.82,-87.22 711.06,-211.71l-87.6 -175.18c-184.38,87.57 -341.11,165.95 -557.77,161.35 -46.33,-0.57 -89.92,-7.46 -130.7,-19.71zm3767.78 -1317.12c0,-336.5 -318.07,-548.56 -622.31,-548.56 -267.36,4.63 -456.37,73.77 -659.2,198.23 -119.83,-129.09 -304.24,-198.23 -488.62,-198.23 -377.99,4.63 -562.4,119.86 -857.41,336.52l0 1733.24 336.5 0 0 -1691.76c50.72,-55.31 189.01,-142.92 313.47,-147.52 345.73,-23.06 493.25,156.72 493.25,465.59l0 1373.69 336.5 0 0 -1544.26c0,-50.69 -4.6,-110.63 -18.43,-152.12 78.35,-59.92 221.27,-142.89 341.1,-147.49 336.5,-13.83 484.02,161.32 484.02,470.19l4.6 1373.69 336.53 0 0 -1521.2z"/>
   </g>
  </g>
 </g>
</svg>
