<?xml version="1.0" encoding="UTF-8"?>
<!DOCTYPE svg PUBLIC "-//W3C//DTD SVG 1.1//EN" "http://www.w3.org/Graphics/SVG/1.1/DTD/svg11.dtd">
<!-- Creator: CorelDRAW 2017 -->
<svg xmlns="http://www.w3.org/2000/svg" xml:space="preserve" width="13in" height="13in" version="1.1" style="shape-rendering:geometricPrecision; text-rendering:geometricPrecision; image-rendering:optimizeQuality; fill-rule:evenodd; clip-rule:evenodd"
viewBox="0 0 13000 13000"
 xmlns:xlink="http://www.w3.org/1999/xlink">
 <defs>
  <style type="text/css">
   <![CDATA[
    .fil0 {fill:#306998}
    .fil2 {fill:#646464}
    .fil1 {fill:#FFD43B}
   ]]>
  </style>
 </defs>
 <g id="Layer_x0020_1">
  <metadata id="CorelCorpID_0Corel-Layer"/>
  <g id="_683133161408">
   <g>
    <path class="fil0" d="M2002.04 5608.59l-7.5 -7.5c-102.54,-102.54 -227.33,-154.23 -372.33,-154.23l-1045.64 0c-290.02,0 -526.57,-236.54 -526.57,-526.56l0 -1053.15c0,-290.02 236.55,-526.57 526.57,-526.57l1053.14 0c290.02,0 526.56,236.55 526.56,526.57l0 1045.67c0,145.01 51.68,269.79 154.23,372.34l7.49 7.49c102.54,102.54 227.33,154.22 372.33,154.22l1045.65 0c290.02,0 526.57,236.55 526.57,526.57l0 1053.15c0,290.02 -236.55,526.56 -526.57,526.56l-1045.64 0c-145.01,0 -269.8,51.69 -372.34,154.23l-7.5 7.5c-102.55,102.54 -154.23,227.33 -154.23,372.34l0 1045.65c0,290.02 -236.54,526.56 -526.56,526.56l-1053.14 0c-290.02,0 -526.57,-236.54 -526.57,-526.56l0 -1053.15c0,-290.02 236.55,-526.57 526.57,-526.57l1045.64 0c145.01,0 269.79,-51.68 372.33,-154.22l7.5 -7.5c102.55,-102.55 154.23,-227.33 154.23,-372.34l0 -1038.15c0,-145.01 -51.68,-269.8 -154.23,-372.34z"/>
    <path class="fil1" d="M4789.1 3340.57l1053.14 0c290.02,0 526.57,236.55 526.57,526.57l0 1053.15c0,290.02 -236.55,526.56 -526.57,526.56l-1053.14 0c-290.02,0 -526.56,-236.54 -526.56,-526.56l0 -1053.15c0,-290.02 236.54,-526.57 526.56,-526.57z"/>
    <path class="fil1" d="M4789.1 7553.14l1053.14 0c290.02,0 526.57,236.55 526.57,526.57l0 1053.15c0,290.02 -236.55,526.56 -526.57,526.56l-1053.14 0c-290.02,0 -526.56,-236.54 -526.56,-526.56l0 -1053.15c0,-290.02 236.54,-526.57 526.56,-526.57z"/>
   </g>
   <g>
    <path class="fil2" d="M7591.26 7488.09c365.43,-6.15 531.26,337.79 534.34,727.8 0,343.93 -171.98,666.38 -540.48,678.66 -150.47,0 -279.45,-46.06 -405.36,-122.83l0 795.35 -221.1 -79.83 3.06 -1765.77c-3.06,0 171.98,-230.32 626.46,-236.47l3.08 3.08zm-55.28 1246.78c294.81,-18.43 331.66,-307.08 331.66,-534.33 0,-221.11 -36.85,-552.76 -316.31,-565.04 -190.39,-12.3 -343.94,76.76 -374.64,107.47l0 875.2c73.7,46.06 221.11,125.91 359.3,116.7zm1185.38 -307.08l0 -942.78 -227.26 76.79 0 933.54c0,248.74 230.32,393.08 433,393.08 264.1,0 414.57,-73.7 482.13,-104.43 3.08,33.79 0,24.57 0,58.36 0,98.26 -3.07,267.17 -49.13,353.15 -92.13,175.04 -337.8,199.61 -509.76,224.17l36.85 141.27c227.24,-6.15 546.62,-92.13 660.23,-307.1 64.49,-122.83 73.7,-359.3 73.7,-515.91l0 -1219.14 -224.17 0 0 1096.31c-73.7,49.13 -208.83,116.7 -328.59,119.76 -199.6,3.06 -347,-104.41 -347,-310.17l0 3.08zm1741.2 463.7c6.94,0 13.85,-0.09 20.73,-0.22 8.32,-0.16 16.56,-0.4 24.77,-0.78l1.4 -0.07 7.56 -0.36 1.09 -0.07 7.83 -0.45 0.76 -0.06c5.68,-0.35 11.32,-0.74 16.94,-1.2l0.13 -0.02 8.47 -0.72 0.18 0 8.25 -0.78 0.49 -0.04 7.91 -0.83 0.78 -0.07 7.56 -0.85 16.56 -2.05 1.69 -0.22c15.7,-2.12 31.17,-4.64 46.43,-7.47l0.53 -0.09 3.39 -0.63 4.57 -0.89c13.22,-2.59 26.26,-5.48 39.13,-8.57l4.97 -1.22 2.74 -0.69 1 -0.26 14.26 -3.73 5.71 -1.56 1.85 -0.52c7.54,-2.12 15.02,-4.31 22.43,-6.6l6.67 -2.09 0.72 -0.24 6.89 -2.21 0.45 -0.17 7.11 -2.36 0.2 -0.07 14.47 -5.04 0.33 -0.11 6.84 -2.48 0.6 -0.22 6.53 -2.45 0.85 -0.31 6.22 -2.39 12.93 -5.15 1.11 -0.44 1.59 -0.65 5.35 -2.21 1.85 -0.78 5.04 -2.16 13.67 -6 2.56 -1.15 4.21 -1.92 2.79 -1.29 3.94 -1.85 3.01 -1.41 3.67 -1.76 3.24 -1.56 3.39 -1.67 3.44 -1.7 3.14 -1.58 3.68 -1.85 2.87 -1.47 0.36 -0.2 6.13 -3.17 4.1 -2.16 2.36 -1.25 4.3 -2.32 2.11 -1.16 4.5 -2.46 1.87 -1.04 4.7 -2.65 1.61 -0.93 4.89 -2.8 1.38 -0.8 5.08 -2.98 1.14 -0.69 5.28 -3.14 0.91 -0.54 5.46 -3.33 0.67 -0.4 5.64 -3.52 0.43 -0.27 5.82 -3.69 0.22 -0.14 6 -3.87 -58.36 -116.7c-122.83,58.34 -227.24,110.55 -371.57,107.48 -3.68,-0.05 -7.36,-0.16 -11.01,-0.32l-2.05 -0.09c-3.26,-0.16 -6.53,-0.4 -9.76,-0.65l-0.71 -0.06 -0.69 -0.06 -9.74 -1 -1.07 -0.11 -0.31 -0.06 -1.38 -0.16 -8.52 -1.2 -2.41 -0.38 -1.34 -0.22 -5.41 -0.94 -1.32 -0.25 -2.69 -0.51 -1.32 -0.27 -1.34 -0.27 -2.65 -0.56 -1.33 -0.29 -1.3 -0.29 -0.04 0 -2.59 -0.6 -1.31 -0.31 -1.32 -0.33 -1.29 -0.33 -1.31 -0.33 -1.3 -0.33 -1.29 -0.34 -1.3 -0.33 -2.57 -0.71 -1.29 -0.36 -3.85 -1.11 -1.27 -0.38c-197.17,-59.23 -296.8,-308.01 -296.8,-521.2 0,-254.89 119.76,-558.91 362.38,-571.19 38.25,-2.34 79.25,1.21 120.44,8.7l3.17 0.58 0.18 0.04 3.35 0.64 1.76 0.33 1.6 0.31 3.35 0.67 0.33 0.07 3.03 0.61 2.27 0.46 1.07 0.23 3.35 0.71 0.85 0.18 2.5 0.56 2.78 0.62 0.56 0.13 3.36 0.76 1.36 0.31 1.98 0.47 3.28 0.76 0.06 0.02 3.33 0.82 1.87 0.45 1.47 0.36 3.34 0.83 0.43 0.11 2.88 0.74 2.36 0.62 0.96 0.24 3.32 0.89 0.94 0.25 2.37 0.63 2.85 0.78 0.45 0.13 3.3 0.91 1.45 0.42 1.85 0.52 3.28 0.94 0.06 0 3.23 0.94 1.94 0.58 1.32 0.4 3.28 0.98 0.54 0.16 2.7 0.82 2.43 0.74 0.83 0.27 3.22 1.02 1.06 0.33 2.19 0.69 2.88 0.93 0.35 0.11 3.21 1.05 1.52 0.51 1.69 0.55 3.19 1.07 0.17 0.06 3.03 1.04 1.98 0.67 1.2 0.42 3.16 1.09 0.65 0.22 2.5 0.89 2.45 0.87 0.69 0.25 3.14 1.13 1.11 0.4 2.01 0.72 2.9 1.07 0.2 0.07 3.1 1.16 1.56 0.58 1.52 0.58 3.06 1.16 0.26 0.09 2.79 1.09 2.01 0.78 1.04 0.4 3.01 1.2 0.72 0.27 2.28 0.93 2.45 0.96 0.56 0.24 2.97 1.21 1.16 0.47 1.8 0.74 2.85 1.18 0.11 0.04 2.92 1.23 1.59 0.67 1.32 0.56 2.9 1.23 0.35 0.15 2.54 1.11 1.98 0.87 0.87 0.38 2.85 1.25 0.78 0.34 2.05 0.93 2.37 1.07 0.44 0.18 2.79 1.27 1.18 0.54 1.58 0.74 2.76 1.27 64.49 -119.76 -9.96 -6.07 -0.04 -0.02 -7.51 -4.43 -2.52 -1.47 -0.06 -0.04 -2.48 -1.42 -7.61 -4.28 -0.09 -0.04 -7.6 -4.13 -2.57 -1.36 -0.11 -0.07 -2.47 -1.29 -2.59 -1.34 -4.54 -2.34 -0.65 -0.33 -0.13 -0.07 -2.47 -1.23 -2.61 -1.3 -2.61 -1.29 -2.61 -1.29 -0.16 -0.09 -2.46 -1.18 -2.63 -1.25 -2.63 -1.25 -2.63 -1.23 -0.2 -0.09 -2.45 -1.12 -2.65 -1.22 -2.65 -1.2 -2.67 -1.2 -0.22 -0.11 -2.45 -1.07 -2.67 -1.16 -2.67 -1.15 -2.67 -1.14 -0.28 -0.13 -2.41 -1.02 -5.39 -2.23 -2.69 -1.09 -0.29 -0.13 -2.41 -0.96 -2.7 -1.07 -5.42 -2.12 -0.33 -0.13 -2.37 -0.91 -5.44 -2.05 -2.74 -1.02 -0.34 -0.13 -0.06 -0.02 -7.8 -2.79 -2.74 -0.96 -0.4 -0.15 -0.42 -0.15 -4.68 -1.59 -2.76 -0.93 -2.76 -0.93 -0.41 -0.15 -2.34 -0.74 -0.31 -0.11 -5.2 -1.67 -2.78 -0.87 -0.45 -0.14 -2.32 -0.71c-180.84,-55.51 -380.77,-37.5 -523.58,60.83 -187.32,128.98 -291.72,377.72 -291.72,629.54 0,337.79 202.68,681.74 546.62,684.8z"/>
    <path class="fil2" d="M10722.93 7513.8c-35.45,42.09 -67.7,85.63 -96.93,130.39 71.53,12.91 143.56,37.72 202.01,65l64.49 -119.76c-52.83,-32.92 -110.24,-58.22 -169.57,-75.63zm-282.94 1214.08c11.66,55.11 26,109.69 43.31,163.38 187.48,-3.76 346.29,-58.11 473.69,-141.04l-58.36 -116.7c-122.83,58.34 -227.24,110.55 -371.57,107.48 -30.87,-0.38 -59.9,-4.97 -87.07,-13.13zm2510.01 -877.43c0,-224.17 -211.89,-365.44 -414.57,-365.44 -178.11,3.08 -304.02,49.15 -439.15,132.06 -79.83,-86 -202.68,-132.06 -325.51,-132.06 -251.81,3.08 -374.66,79.85 -571.19,224.19l0 1154.65 224.17 0 0 -1127.01c33.79,-36.85 125.91,-95.21 208.83,-98.28 230.31,-15.36 328.59,104.41 328.59,310.17l0 915.12 224.17 0 0 -1028.76c0,-33.77 -3.06,-73.7 -12.28,-101.34 52.19,-39.92 147.4,-95.19 227.24,-98.26 224.17,-9.21 322.44,107.47 322.44,313.23l3.06 915.12 224.19 0 0 -1013.39z"/>
   </g>
  </g>
 </g>
</svg>
