<?xml version="1.0" encoding="UTF-8"?>
<!DOCTYPE svg PUBLIC "-//W3C//DTD SVG 1.1//EN" "http://www.w3.org/Graphics/SVG/1.1/DTD/svg11.dtd">
<!-- Creator: CorelDRAW 2017 -->
<svg xmlns="http://www.w3.org/2000/svg" xml:space="preserve" width="13in" height="13in" version="1.1" style="shape-rendering:geometricPrecision; text-rendering:geometricPrecision; image-rendering:optimizeQuality; fill-rule:evenodd; clip-rule:evenodd"
viewBox="0 0 13000 13000"
 xmlns:xlink="http://www.w3.org/1999/xlink">
 <defs>
  <style type="text/css">
   <![CDATA[
    .fil0 {fill:#306998}
    .fil2 {fill:#646464}
    .fil1 {fill:#FFD43B}
   ]]>
  </style>
 </defs>
 <g id="Layer_x0020_1">
  <metadata id="CorelCorpID_0Corel-Layer"/>
  <g id="_683033234224">
   <g>
    <path class="fil0" d="M1056.14 6040.54l-3.87 -3.87c-52.85,-52.85 -117.17,-79.49 -191.91,-79.49l-538.96 0c-149.48,0 -271.41,-121.93 -271.41,-271.41l0 -542.83c0,-149.48 121.92,-271.41 271.41,-271.41l542.82 0c149.48,0 271.41,121.92 271.41,271.41l0 538.97c0,74.74 26.64,139.06 79.49,191.91l3.86 3.86c52.85,52.85 117.17,79.49 191.91,79.49l538.96 0c149.48,0 271.41,121.92 271.41,271.41l0 542.83c0,149.48 -121.92,271.41 -271.41,271.41l-538.95 0c-74.74,0 -139.06,26.64 -191.92,79.5l-3.87 3.87c-52.85,52.85 -79.49,117.17 -79.49,191.91l0 538.96c0,149.48 -121.92,271.41 -271.41,271.41l-542.82 0c-149.48,0 -271.41,-121.92 -271.41,-271.41l0 -542.83c0,-149.48 121.92,-271.41 271.41,-271.41l538.96 0c74.74,0 139.06,-26.64 191.91,-79.49l3.87 -3.87c52.85,-52.85 79.49,-117.17 79.49,-191.91l0 -535.09c0,-74.74 -26.64,-139.06 -79.49,-191.91z"/>
    <path class="fil1" d="M2492.68 4871.54l542.82 0c149.48,0 271.41,121.92 271.41,271.41l0 542.83c0,149.48 -121.93,271.41 -271.41,271.41l-542.82 0c-149.48,0 -271.41,-121.93 -271.41,-271.41l0 -542.83c0,-149.48 121.93,-271.41 271.41,-271.41z"/>
    <path class="fil1" d="M2492.68 7042.82l542.82 0c149.48,0 271.41,121.93 271.41,271.41l0 542.83c0,149.48 -121.93,271.41 -271.41,271.41l-542.82 0c-149.48,0 -271.41,-121.92 -271.41,-271.41l0 -542.83c0,-149.48 121.93,-271.41 271.41,-271.41z"/>
   </g>
   <g>
    <path class="fil2" d="M4663.9 4913.76c565.05,-9.5 821.47,522.31 826.24,1125.38 0,531.82 -265.93,1030.41 -835.74,1049.39 -232.67,0 -432.1,-71.23 -626.8,-189.93l0 1229.84 -341.89 -123.44 4.74 -2730.37c-4.74,0 265.93,-356.13 968.69,-365.64l4.77 4.77zm-85.47 1927.86c455.85,-28.49 512.83,-474.84 512.83,-826.23 0,-341.89 -56.98,-854.72 -489.11,-873.7 -294.39,-19.01 -531.82,118.7 -579.3,166.18l0 1353.31c113.96,71.23 341.89,194.7 555.57,180.45zm1832.92 -474.84l0 -1457.79 -351.4 118.73 0 1443.52c0,384.63 356.14,607.81 669.54,607.81 408.38,0 641.04,-113.96 745.5,-161.46 4.77,52.24 0,38 0,90.24 0,151.93 -4.74,413.11 -75.96,546.06 -142.46,270.66 -522.34,308.66 -788.24,346.63l56.98 218.44c351.37,-9.5 845.22,-142.45 1020.9,-474.86 99.72,-189.93 113.96,-555.57 113.96,-797.74l0 -1885.12 -346.63 0 0 1695.19c-113.96,75.97 -322.91,180.45 -508.09,185.19 -308.63,4.74 -536.56,-161.44 -536.56,-479.6l0 4.76zm2692.39 717.01c10.74,0 21.42,-0.14 32.05,-0.34 12.87,-0.25 25.6,-0.61 38.3,-1.2l2.16 -0.11 11.69 -0.56 1.68 -0.11 12.11 -0.7 1.18 -0.09c8.78,-0.53 17.5,-1.15 26.19,-1.85l0.2 -0.03 13.09 -1.12 0.28 0 12.76 -1.2 0.76 -0.06 12.22 -1.29 1.21 -0.11 11.69 -1.32 25.6 -3.17 2.61 -0.34c24.28,-3.28 48.2,-7.18 71.79,-11.55l0.81 -0.14 5.24 -0.98 7.07 -1.37c20.44,-4.01 40.6,-8.47 60.52,-13.26l7.68 -1.88 4.24 -1.07 1.54 -0.39 22.04 -5.78 8.83 -2.41 2.86 -0.81c11.67,-3.28 23.22,-6.67 34.69,-10.21l10.32 -3.22 1.12 -0.36 10.66 -3.42 0.7 -0.25 10.99 -3.65 0.31 -0.11 22.38 -7.8 0.5 -0.17 10.57 -3.84 0.93 -0.33 10.09 -3.79 1.31 -0.48 9.62 -3.7 19.99 -7.96 1.71 -0.67 2.46 -1.01 8.28 -3.42 2.86 -1.2 7.8 -3.34 21.15 -9.28 3.95 -1.77 6.5 -2.97 4.32 -1.99 6.09 -2.86 4.65 -2.19 5.67 -2.72 5.02 -2.41 5.24 -2.58 5.33 -2.63 4.85 -2.44 5.69 -2.86 4.43 -2.27 0.56 -0.31 9.48 -4.91 6.34 -3.34 3.64 -1.93 6.65 -3.59 3.25 -1.8 6.95 -3.81 2.89 -1.6 7.26 -4.09 2.5 -1.43 7.57 -4.32 2.13 -1.23 7.85 -4.6 1.77 -1.07 8.16 -4.85 1.4 -0.84 8.44 -5.16 1.04 -0.62 8.72 -5.44 0.67 -0.42 9 -5.69 0.33 -0.22 9.28 -5.98 -90.24 -180.45c-189.93,90.21 -351.37,170.94 -574.56,166.2 -5.69,-0.08 -11.39,-0.25 -17.02,-0.5l-3.17 -0.14c-5.05,-0.25 -10.1,-0.61 -15.09,-1.01l-1.09 -0.08 -1.07 -0.09 -15.06 -1.54 -1.65 -0.17 -0.48 -0.09 -2.13 -0.25 -13.18 -1.85 -3.73 -0.59 -2.08 -0.34 -8.35 -1.46 -2.05 -0.39 -4.15 -0.78 -2.05 -0.42 -2.07 -0.42 -4.09 -0.87 -2.05 -0.45 -2.02 -0.45 -0.06 0 -4.01 -0.93 -2.02 -0.48 -2.05 -0.5 -1.99 -0.5 -2.02 -0.51 -2.02 -0.5 -1.99 -0.53 -2.02 -0.5 -3.98 -1.09 -1.99 -0.56 -5.94 -1.71 -1.96 -0.59c-304.87,-91.58 -458.94,-476.26 -458.94,-805.93 0,-394.13 185.19,-864.23 560.34,-883.21 59.14,-3.62 122.54,1.88 186.22,13.46l4.91 0.9 0.28 0.06 5.19 0.98 2.72 0.5 2.47 0.48 5.19 1.04 0.5 0.11 4.69 0.95 3.5 0.7 1.66 0.37 5.19 1.09 1.32 0.28 3.87 0.87 4.29 0.95 0.87 0.2 5.19 1.18 2.1 0.48 3.06 0.73 5.07 1.18 0.08 0.03 5.16 1.26 2.89 0.7 2.27 0.56 5.16 1.29 0.67 0.17 4.46 1.15 3.65 0.95 1.48 0.36 5.13 1.37 1.46 0.39 3.67 0.98 4.4 1.2 0.7 0.2 5.11 1.4 2.24 0.65 2.86 0.81 5.07 1.46 0.09 0 4.99 1.46 3 0.9 2.05 0.62 5.08 1.51 0.84 0.25 4.18 1.26 3.76 1.15 1.29 0.42 4.99 1.57 1.63 0.5 3.39 1.06 4.46 1.43 0.53 0.17 4.96 1.63 2.35 0.79 2.61 0.84 4.93 1.65 0.25 0.08 4.69 1.6 3.06 1.04 1.85 0.65 4.88 1.68 1.01 0.33 3.87 1.37 3.79 1.35 1.06 0.39 4.85 1.74 1.71 0.61 3.11 1.12 4.48 1.65 0.31 0.11 4.8 1.8 2.41 0.9 2.36 0.9 4.74 1.8 0.39 0.14 4.32 1.68 3.11 1.21 1.6 0.61 4.65 1.85 1.12 0.42 3.53 1.43 3.79 1.48 0.87 0.37 4.6 1.88 1.8 0.73 2.78 1.15 4.4 1.82 0.17 0.06 4.52 1.91 2.46 1.04 2.05 0.87 4.49 1.91 0.53 0.22 3.93 1.71 3.06 1.35 1.35 0.59 4.4 1.94 1.2 0.53 3.17 1.43 3.67 1.66 0.67 0.28 4.32 1.96 1.82 0.84 2.44 1.15 4.26 1.96 99.72 -185.19 -15.4 -9.39 -0.06 -0.03 -11.61 -6.84 -3.9 -2.27 -0.08 -0.06 -3.84 -2.19 -11.78 -6.62 -0.14 -0.06 -11.75 -6.39 -3.98 -2.11 -0.17 -0.11 -3.81 -1.99 -4.01 -2.07 -7.01 -3.62 -1.01 -0.5 -0.2 -0.11 -3.81 -1.91 -4.04 -2.02 -4.04 -1.99 -4.04 -1.99 -0.25 -0.14 -3.81 -1.82 -4.07 -1.93 -4.07 -1.94 -4.07 -1.91 -0.31 -0.14 -3.79 -1.74 -4.09 -1.88 -4.09 -1.85 -4.12 -1.85 -0.33 -0.17 -3.79 -1.65 -4.12 -1.8 -4.12 -1.77 -4.12 -1.77 -0.42 -0.2 -3.73 -1.57 -8.33 -3.45 -4.15 -1.68 -0.45 -0.2 -3.73 -1.48 -4.18 -1.66 -8.39 -3.28 -0.5 -0.2 -3.67 -1.4 -8.41 -3.17 -4.23 -1.57 -0.54 -0.19 -0.08 -0.03 -12.06 -4.31 -4.23 -1.49 -0.62 -0.22 -0.65 -0.22 -7.24 -2.47 -4.26 -1.43 -4.26 -1.43 -0.65 -0.22 -3.61 -1.15 -0.48 -0.17 -8.05 -2.58 -4.29 -1.35 -0.7 -0.22 -3.59 -1.09c-279.64,-85.83 -588.78,-57.99 -809.61,94.05 -289.65,199.44 -451.09,584.06 -451.09,973.45 0,522.31 313.4,1054.15 845.22,1058.89z"/>
    <path class="fil2" d="M9506.33 4953.52c-54.82,65.09 -104.68,132.41 -149.89,201.62 110.6,19.96 221.98,58.33 312.36,100.5l99.72 -185.19c-81.69,-50.9 -170.47,-90.02 -262.2,-116.94zm-437.51 1877.3c18.03,85.22 40.21,169.6 66.96,252.63 289.9,-5.8 535.46,-89.85 732.46,-218.08l-90.24 -180.45c-189.93,90.21 -351.37,170.94 -574.56,166.2 -47.73,-0.59 -92.62,-7.68 -134.63,-20.3zm3881.18 -1356.76c0,-346.63 -327.65,-565.07 -641.05,-565.07 -275.4,4.77 -470.1,76 -679.04,204.2 -123.44,-132.98 -313.4,-204.2 -503.33,-204.2 -389.36,4.77 -579.32,123.47 -883.21,346.66l0 1785.41 346.63 0 0 -1742.67c52.24,-56.98 194.7,-147.22 322.91,-151.96 356.14,-23.75 508.1,161.44 508.1,479.6l0 1415.03 346.63 0 0 -1590.74c0,-52.21 -4.74,-113.96 -18.98,-156.7 80.7,-61.72 227.93,-147.19 351.37,-151.93 346.63,-14.24 498.59,166.18 498.59,484.34l4.74 1415.03 346.66 0 0 -1566.99z"/>
   </g>
  </g>
 </g>
</svg>
